<svg width="105" height="95" viewBox="0 0 105 95" fill="none" xmlns="http://www.w3.org/2000/svg">
<path d="M71.5001 5.00005C67.7649 6.86772 64.6667 8.83337 64.5001 9.50004C64.3334 10 66.2 10.6 69 11C72.5 11.5 70 22.5 64.5001 24.5C60.7409 25.8669 54.7668 25.9323 53.5002 21.5C52.5 18 53.5001 10 62.5 4.00003C71.0666 -1.71102 75.5 3.00001 71.5001 5.00005Z" stroke="#050505" stroke-width="2" stroke-miterlimit="1.41421"/>
<path d="M50.3123 5.00005C46.5771 6.86772 43.479 8.83337 43.3123 9.50004C43.1457 10 45.0123 10.6 47.8123 11C51.3123 11.5 48.8123 22.5 43.3123 24.5C39.5532 25.8669 33.5791 25.9323 32.3125 21.5C31.3123 18 32.3123 10 41.3123 4.00003C49.8788 -1.71102 54.3123 3.00001 50.3123 5.00005Z" stroke="black" stroke-width="2" stroke-miterlimit="1.41421"/>
<path fill-rule="evenodd" clip-rule="evenodd" d="M57.1176 43.2065C64.9863 44.4607 71 51.2781 71 59.5C71 68.6127 63.6127 76 54.5 76C45.3873 76 38 68.6127 38 59.5C38 53.1084 41.6342 47.5656 46.949 44.8253L37.6849 28.2271C26.5605 34.2212 19 45.9777 19 59.5C19 79.1061 34.8939 95 54.5 95C74.1061 95 90 79.1061 90 59.5C90 41.5289 76.6464 26.6767 59.3205 24.3245L57.1176 43.2065Z" fill="#FEC300"/>
<path d="M96 25.5L94.9394 26.5606L94.9394 26.5606L96 25.5ZM99.5 54L100.762 54.8111L100.762 54.8111L99.5 54ZM65.5 72L65.4034 70.5031L65.5 72ZM11.5 67L10.705 68.272L11.5 67ZM7.00009 35L5.93943 33.9393L5.88756 33.9912L5.841 34.0479L7.00009 35ZM31.5 36.5L32.6869 35.5828L31.5 36.5ZM28.5 55.5L27.668 54.2519L28.5 55.5ZM15 49.5L16.0923 48.4719C15.5259 47.8701 14.5794 47.8398 13.9757 48.4042C13.3719 48.9686 13.3385 49.915 13.9008 50.5207L15 49.5ZM33 59L32.86 60.4935L33 59ZM64.5 58.5L64.694 59.9874L64.5 58.5ZM80.0001 47C80.0001 42.9691 78.646 39.4319 77.8126 36.6343C76.9399 33.7043 76.6498 31.6658 77.7863 29.7717L75.2138 28.2282C73.3503 31.3341 74.0602 34.5456 74.9375 37.4907C75.8542 40.5681 77.0001 43.5309 77.0001 47H80.0001ZM77.7863 29.7717C79.1087 27.5677 81.8779 25.1154 85.1062 24.0723C88.2305 23.0627 91.7472 23.3685 94.9394 26.5606L97.0607 24.4393C92.9728 20.3514 88.2394 19.9071 84.1838 21.2176C80.2321 22.4945 76.8914 25.4323 75.2138 28.2282L77.7863 29.7717ZM94.9394 26.5606C98.8804 30.5017 100.686 35.6383 101 40.6067C101.316 45.6034 100.113 50.2719 98.2383 53.1889L100.762 54.8111C103.045 51.26 104.342 45.9286 103.994 40.4173C103.643 34.8777 101.62 28.9983 97.0607 24.4393L94.9394 26.5606ZM98.2383 53.1889C95.9856 56.693 93.525 60.5728 88.8115 63.8186C84.1038 67.0606 77.0109 69.7542 65.4034 70.5031L65.5966 73.4969C77.5885 72.7232 85.2456 69.9169 90.5131 66.2894C95.7748 62.666 98.5144 58.307 100.762 54.8111L98.2383 53.1889ZM65.4034 70.5031C49.9387 71.5008 38.5324 71.4956 30.0264 70.6327C21.5113 69.7688 16.0195 68.0558 12.295 65.728L10.705 68.272C14.9806 70.9442 20.9887 72.7312 29.7236 73.6173C38.4676 74.5044 50.0613 74.4992 65.5966 73.4969L65.4034 70.5031ZM12.295 65.728C11.3796 65.1559 9.9453 63.8328 8.47742 61.8793C7.02651 59.9483 5.609 57.4885 4.66794 54.7121C2.80113 49.2045 2.80047 42.4757 8.15918 35.9521L5.841 34.0479C-0.30036 41.5243 -0.304648 49.387 1.82671 55.6751C2.88474 58.7966 4.46677 61.5357 6.07903 63.6814C7.67432 65.8045 9.36685 67.4357 10.705 68.272L12.295 65.728ZM8.06075 36.0606C10.6333 33.4881 14.3133 31.3386 18.2319 31.0587C22.0481 30.7861 26.333 32.2665 30.3131 37.4172L32.6869 35.5828C28.167 29.7335 22.9519 27.7139 18.0181 28.0663C13.1868 28.4114 8.86676 31.012 5.93943 33.9393L8.06075 36.0606ZM30.3131 37.4172C32.4395 40.169 32.6313 43.7914 31.7635 47.1764C31.3337 48.8529 30.6567 50.4079 29.8923 51.6674C29.1138 52.9502 28.3055 53.8269 27.668 54.2519L29.3321 56.7481C30.4718 55.9883 31.555 54.7101 32.457 53.2238C33.3731 51.7143 34.1658 49.8862 34.6695 47.9214C35.6687 44.0238 35.5832 39.331 32.6869 35.5828L30.3131 37.4172ZM27.668 54.2519C26.2025 55.2289 24.2298 54.8707 21.8469 53.4089C19.5475 51.9984 17.4108 49.8729 16.0923 48.4719L13.9077 50.528C15.2559 51.9604 17.6192 54.3349 20.2782 55.9661C22.8535 57.5459 26.2975 58.7711 29.3321 56.7481L27.668 54.2519ZM13.9008 50.5207C15.1388 51.8538 18.2806 54.1763 21.7893 56.2099C25.2867 58.2369 29.4857 60.1771 32.86 60.4935L33.14 57.5065C30.4581 57.2551 26.7405 55.612 23.2936 53.6143C19.858 51.6231 17.028 49.4795 16.0992 48.4793L13.9008 50.5207ZM32.86 60.4935C44.9666 61.6284 53.0787 61.5024 64.694 59.9874L64.306 57.0126C52.9213 58.4976 45.0334 58.6216 33.14 57.5065L32.86 60.4935ZM64.694 59.9874C67.9955 59.5568 71.7733 58.7762 74.75 56.8845C77.8381 54.9221 80.0001 51.7977 80.0001 47H77.0001C77.0001 50.7023 75.4227 52.9026 73.141 54.3525C70.748 55.8732 67.5257 56.5926 64.306 57.0126L64.694 59.9874Z" fill="black"/>
</svg>
