<svg width="394" height="550" viewBox="0 0 394 550" fill="none" xmlns="http://www.w3.org/2000/svg">
<path d="M372.55 315.96C372.19 311.55 371.82 307.14 371.31 302.75C370.93 299.53 370.37 296.33 369.79 293.13C369.34 290.66 368.88 288.17 368.16 285.77C367.17 282.5 366.16 279.19 364.74 276.08C362.96 272.18 360.75 268.46 358.73 264.66C358.68 264.59 358.63 264.52 358.57 264.45V264.42C357.83 263.41 357.09 262.41 356.36 261.4C356.23 261.24 356.1 261.08 355.97 260.92C355.88 260.91 355.83 260.86 355.83 260.77C355.72 260.6 355.61 260.44 355.5 260.27C353.77 258.35 352.1 256.37 350.29 254.52C349.26 253.49 348 252.68 346.85 251.77C346.68 251.32 346.34 250.87 346.35 250.42C346.39 248.43 346.47 246.44 346.65 244.46C347.02 240.47 347.48 236.49 347.88 232.51C348.15 229.83 348.37 227.15 348.64 224.47C349.04 220.46 349.47 216.45 349.87 212.44C350.14 209.78 350.37 207.1 350.65 204.44C351.04 200.67 351.47 196.91 351.85 193.14C352.23 189.4 352.53 185.66 352.91 181.92C353.45 176.6 354.05 171.29 354.61 165.97C354.95 162.74 355.28 159.51 355.6 156.29C356.11 151 356.61 145.71 357.12 140.43C357.45 137.07 357.77 133.72 358.11 130.37C358.52 126.31 358.97 122.24 359.37 118.18C359.87 113.04 360.32 107.91 360.83 102.78C361.33 97.7402 361.89 92.7102 362.39 87.6802C362.74 84.1502 363.14 80.6202 363.31 77.0802C363.47 73.5302 363.56 69.9602 363.31 66.4302C363.14 63.9702 362.42 61.5402 361.84 59.1202C361.33 56.9802 360.75 54.8302 360.05 52.7402C358.71 48.6802 356.48 45.0902 354.08 41.5902C353.26 40.5002 352.44 39.4102 351.62 38.3102C349.04 35.7502 346.45 33.1802 343.87 30.6102C341.05 28.7702 338.25 26.8802 335.39 25.1002C334.59 24.6002 333.57 24.4402 332.66 24.1302C332.42 24.0302 332.19 23.9402 331.96 23.8402C330.33 23.1302 328.85 21.9802 326.92 22.1902C326.85 22.1502 326.77 22.1202 326.69 22.1202L326.18 21.9102C325.64 21.7302 325.11 21.4502 324.56 21.3802C322.93 21.1702 321.28 20.9102 319.65 20.9102C314.74 20.9302 309.83 21.0502 304.92 21.1702C304.19 21.1902 303.47 21.4602 302.74 21.6102C302.24 21.7702 301.74 21.9202 301.24 22.0702C301 22.1102 300.76 22.1502 300.52 22.1902C299.35 22.5802 298.18 22.9802 297.01 23.3702C296.84 23.4302 296.67 23.5002 296.5 23.5602C296.48 23.6402 296.42 23.6602 296.35 23.6402C296.24 23.7302 296.13 23.8202 296.03 23.9102C293.23 24.5302 290.88 26.0702 288.53 27.6102C288.12 27.8902 287.72 28.1602 287.31 28.4402C286.36 29.1402 285.41 29.8402 284.46 30.5402C284.08 30.8302 283.7 31.1202 283.32 31.4002C280.34 33.4002 277.93 35.9502 275.86 38.8602C275.51 39.2702 275.17 39.6802 274.83 40.1002C274.18 41.0202 273.54 41.9402 272.89 42.8602C272.38 43.6902 271.86 44.5302 271.35 45.3702C270.08 48.0102 268.8 50.6502 267.53 53.2902C267.15 54.1102 266.62 54.8902 266.41 55.7502C265.71 58.6102 264.98 61.4702 264.54 64.3702C263.86 68.7502 263.36 73.1602 262.88 77.5602C262.49 81.0502 262.24 84.5502 261.92 88.0402C261.66 90.9402 261.36 93.8402 261.1 96.7502C260.91 98.9002 260.79 101.05 260.57 103.2C260.29 106.05 259.93 108.89 259.63 111.74C259.35 114.26 259.09 116.79 258.85 119.32C258.73 120.59 258.71 121.87 258.58 123.14C258.3 125.9 257.95 128.65 257.65 131.42C257.34 134.29 257.06 137.17 256.77 140.04C256.6 141.69 256.46 143.34 256.31 144.99C256.08 147.53 255.89 150.08 255.62 152.61C255.33 155.22 254.91 157.81 254.64 160.42C254.31 163.63 254.11 166.85 253.81 170.06C253.43 174.2 253.04 178.34 252.6 182.47C252.56 182.85 252.13 183.19 251.88 183.55C251.56 183.25 251.04 183.02 250.94 182.66C250.55 181.36 250.29 180.01 249.98 178.68C249.38 176.05 248.75 173.41 248.18 170.77C247.62 168.16 247.16 165.52 246.58 162.92C245.83 159.5 244.98 156.11 244.22 152.7C243.67 150.21 243.25 147.69 242.71 145.19C242.25 143.05 241.66 140.93 241.21 138.79C240.44 135.15 239.78 131.48 238.99 127.85C238.13 123.92 237.11 120.02 236.25 116.09C235.4 112.19 234.71 108.26 233.86 104.36C233.04 100.63 232.07 96.9301 231.23 93.2001C230.4 89.5201 229.68 85.8202 228.88 82.1402C228.3 79.4402 227.69 76.7502 227.04 74.0602C226.46 71.6202 225.88 69.1802 225.17 66.7702C224.61 64.8302 223.86 62.9502 223.2 61.0502C222.58 59.5502 222.02 58.0102 221.31 56.5602C220.82 55.5702 220.12 54.6802 219.51 53.7502C219.07 52.9502 218.62 52.1402 218.18 51.3402C218.11 51.2502 218.05 51.1602 217.98 51.0702C217.95 50.9602 217.93 50.8502 217.9 50.7502L217.84 50.6602C217.16 49.8602 216.47 49.0602 215.78 48.2602C215.61 47.9402 215.44 47.6302 215.26 47.3102C212.16 42.8502 208.06 39.4702 203.57 36.5102C202.83 36.1102 202.08 35.7102 201.33 35.3202C201.13 35.0702 200.97 34.7402 200.71 34.6102C198.49 33.5102 196.26 32.4602 194.03 31.3902H194C193.76 31.3002 193.53 31.2202 193.3 31.1302C191.44 30.5402 189.61 29.7902 187.71 29.3902C185.06 28.8402 182.36 28.3302 179.66 28.1802C174.45 27.8902 169.24 28.0602 164.15 29.4502C163.56 29.6802 162.97 29.9102 162.38 30.1502H161.9C160.46 30.7002 159.01 31.2502 157.57 31.8102C157.51 31.8002 157.45 31.8102 157.4 31.8602C155.48 32.8502 153.56 33.8402 151.63 34.8302C151.47 34.9102 151.32 35.0002 151.16 35.0802C150.41 35.5602 149.66 36.0402 148.91 36.5202C148.5 36.8102 148.1 37.1102 147.7 37.4002C146.44 38.4602 145.18 39.5202 143.92 40.5802C142.68 41.8202 141.44 43.0702 140.19 44.3202C139.3 45.4102 138.41 46.5102 137.52 47.6002C137.17 48.0902 136.82 48.5802 136.46 49.0802C136.4 49.1602 136.34 49.2502 136.28 49.3302C136.21 49.3802 136.18 49.4502 136.18 49.5302C135.5 50.6102 134.82 51.6902 134.14 52.7702C132.66 56.1102 131.08 59.4102 129.72 62.8002C128.41 66.0802 127.92 69.5702 127.5 73.0602C127.35 74.2802 127.41 75.5402 127.2 76.7502C126.5 80.7802 127.29 84.7302 127.86 88.6702C128.3 91.7402 129.27 94.7302 129.95 97.7702C131.12 103.05 132.21 108.34 133.39 113.62C134.19 117.24 135.1 120.84 135.9 124.46C136.71 128.13 137.41 131.83 138.21 135.51C138.72 137.9 139.36 140.25 139.86 142.64C140.52 145.81 141.04 149.02 141.73 152.18C142.8 157.03 143.95 161.86 145.07 166.7C145.68 169.38 146.33 172.05 146.91 174.73C147.63 178.06 148.27 181.42 149.01 184.75C149.58 187.29 150.3 189.79 150.87 192.33C151.65 195.83 152.33 199.36 153.09 202.86C154.39 208.8 155.74 214.72 157.03 220.66C157.37 222.24 157.53 223.85 157.78 225.45C157.64 225.55 157.5 225.65 157.37 225.75C156.67 225.36 155.91 225.05 155.3 224.55C154.96 224.27 154.89 223.66 154.7 223.2C153.78 222.04 152.86 220.87 151.94 219.71C150.91 218.58 149.94 217.39 148.85 216.33C147.79 215.31 146.61 214.42 145.48 213.47C145.13 213.08 144.77 212.68 144.42 212.29C144.19 212.11 143.96 211.92 143.74 211.74C143.63 211.67 143.53 211.61 143.43 211.55L143.4 211.52C143.24 211.4 143.08 211.28 142.92 211.16C142.61 211.01 142.29 210.87 141.98 210.72C141.86 210.53 141.78 210.27 141.61 210.14C137.93 207.52 133.97 205.41 129.72 203.89C128.67 203.51 127.57 203.31 126.49 203.03C125.53 202.71 124.6 202.26 123.61 202.09C121.03 201.67 118.44 201.19 115.83 201.05C109.66 200.72 103.64 201.61 97.8404 203.85C92.6704 205.68 88.0204 208.37 84.0804 212.23C82.5104 213.81 80.9304 215.39 79.3604 216.97C78.6904 217.81 78.0304 218.65 77.3704 219.48C77.3004 219.6 77.2204 219.72 77.1504 219.85C77.1704 219.93 77.1304 219.99 77.0404 220C76.9004 220.16 76.7604 220.32 76.6304 220.48C76.1304 221.19 75.5404 221.85 75.1404 222.6C73.9404 224.87 72.8204 227.18 71.6704 229.47C68.3404 237.27 67.5704 245.42 68.3404 253.68C65.7004 253.94 63.1404 254.05 60.6304 254.46C58.2004 254.86 55.8304 255.57 53.4304 256.15C53.3504 256.17 53.2704 256.19 53.1904 256.22C52.9304 256.34 52.6704 256.47 52.4204 256.6C51.1804 257.04 49.9404 257.48 48.7104 257.92C45.8104 259.6 42.9004 261.28 40.0004 262.96C39.0604 263.68 38.1304 264.4 37.1904 265.12C36.7204 265.55 36.2504 265.97 35.7704 266.4C33.8504 268.4 31.9304 270.39 30.0104 272.39C28.9504 273.84 27.4904 275.04 27.0204 276.89C26.6804 277.3 26.3404 277.7 26.0004 278.11H26.0104C25.9304 278.2 25.8604 278.29 25.7904 278.38C25.7404 278.42 25.7204 278.48 25.7304 278.55C24.6804 280.66 23.6404 282.77 22.6004 284.88C22.4204 285.55 22.3804 286.3 22.0504 286.88C20.5304 289.58 20.2404 292.57 20.0704 295.53C19.8904 298.8 20.1304 302.09 20.0104 305.37C19.8304 310.14 21.0004 314.66 22.9204 318.89C24.7804 322.98 27.0604 326.9 29.4204 330.73C32.2504 335.32 35.3604 339.73 38.3404 344.22C38.8104 344.97 39.2804 345.73 39.7504 346.49C39.9404 346.73 40.1204 346.97 40.3104 347.22C40.8604 347.98 41.4104 348.75 41.9604 349.52C42.2304 349.9 42.5004 350.28 42.7704 350.67C43.3004 351.4 43.8404 352.13 42.9704 352.98C41.5304 354.24 40.8604 355.9 40.5204 357.73C40.4204 358.55 40.1504 359.39 40.2404 360.18C40.5604 362.91 40.9404 365.63 41.4304 368.33C41.9704 371.32 42.6504 374.28 43.2804 377.25C44.3304 382.24 45.3404 387.23 46.4504 392.21C46.9904 394.61 47.6704 396.98 48.3704 399.34C49.1204 401.86 49.9204 404.36 50.7704 406.85C51.3404 408.54 52.0404 410.19 52.6804 411.87C52.7604 412.05 52.8404 412.23 52.9204 412.41C52.9304 412.49 52.9704 412.55 53.0404 412.59C53.4904 413.71 53.9404 414.83 54.3804 415.94C56.1704 419.79 57.9104 423.67 59.7804 427.49C61.1904 430.38 62.7604 433.19 64.2604 436.04C65.0504 437.4 65.8404 438.75 66.6304 440.11C67.8004 442 68.9704 443.9 70.1404 445.8C71.0004 447.24 71.7904 448.73 72.7304 450.11C74.1504 452.21 75.6804 454.23 77.1604 456.28C77.5604 456.86 77.9704 457.44 78.3804 458.02C79.0304 458.88 79.6804 459.73 80.3204 460.58C80.6704 461.06 81.0204 461.54 81.3704 462.01C82.0304 462.84 82.7004 463.67 83.3604 464.5C84.1004 465.45 84.8404 466.39 85.5804 467.34C86.4904 468.4 87.4104 469.47 88.3304 470.53C89.2104 471.53 90.1004 472.53 90.9904 473.53C91.3904 474.01 91.7904 474.48 92.1904 474.96C93.1204 476.05 93.9904 477.21 95.0104 478.21C98.2304 481.35 101.5 484.44 104.75 487.54C106.26 488.85 107.77 490.16 109.28 491.48C110.2 492.22 111.11 492.97 112.02 493.72C112.62 494.21 113.22 494.69 113.82 495.18L117.03 497.64C117.35 497.91 117.68 498.18 118 498.45C118.74 498.96 119.49 499.48 120.23 499.99C122.65 501.64 125.06 503.29 127.48 504.94C127.62 505.03 127.75 505.12 127.88 505.22C128.16 505.37 128.45 505.51 128.73 505.66L128.78 505.73L128.86 505.71C128.98 505.8 129.1 505.89 129.21 505.98C130.02 506.48 130.82 506.99 131.62 507.49C134.19 508.98 136.71 510.6 139.36 511.94C143.9 514.23 148.47 516.51 153.14 518.51C157.21 520.25 161.4 521.72 165.61 523.08C169.74 524.41 173.94 525.58 178.17 526.57C182.4 527.56 186.7 528.3 191 529.02C193.52 529.44 196.08 529.81 198.63 529.84C206.14 529.95 213.66 529.77 221.17 529.92C227.26 530.03 233.27 529.46 239.24 528.37C246.25 527.1 253.16 525.42 259.93 523.21C261.17 522.8 262.38 522.29 263.6 521.83C264.19 521.64 264.79 521.5 265.35 521.27C269.85 519.4 274.41 517.66 278.82 515.6C286.04 512.25 293.04 508.47 299.25 503.41C299.67 503.3 300.16 503.29 300.5 503.06C301.93 502.09 303.38 501.11 304.72 500.01C306.77 498.32 308.69 496.48 310.74 494.8C312.84 493.09 315.03 491.51 317.18 489.86C319.84 487.3 322.53 484.76 325.15 482.15C325.77 481.54 326.18 480.71 326.68 479.98C328 478.56 329.33 477.13 330.65 475.71C331.56 474.63 332.47 473.55 333.38 472.48V472.46C333.5 472.32 333.62 472.18 333.73 472.03C337.69 466.36 341.82 460.79 345.57 454.98C350.5 447.34 354.63 439.24 357.96 430.77C360.01 425.58 361.89 420.32 363.6 415C364.86 411.08 365.76 407.04 366.78 403.03C367.4 400.58 368.01 398.11 368.49 395.62C368.94 393.25 369.18 390.84 369.57 388.46C370.15 384.88 370.86 381.32 371.35 377.73C371.78 374.54 372.08 371.32 372.28 368.1C372.6 363.08 373.03 358.05 373 353.03C372.93 340.67 373.55 328.3 372.54 315.96H372.55ZM272.39 223.3C272.71 220 273.02 216.71 273.35 213.41C273.71 209.88 274.11 206.35 274.46 202.82C274.85 198.71 275.19 194.6 275.59 190.49C275.82 188.03 276.14 185.58 276.39 183.12C276.8 178.98 277.17 174.83 277.58 170.68C277.83 168.18 278.12 165.68 278.38 163.18C278.61 160.85 278.83 158.51 279.06 156.17C279.48 152 279.91 147.84 280.31 143.67C280.59 140.77 280.81 137.86 281.09 134.95C281.43 131.47 281.82 128 282.18 124.52C282.57 120.69 282.94 116.86 283.32 113.03C283.6 110.23 283.89 107.43 284.16 104.63C284.38 102.26 284.57 99.8802 284.81 97.5102C284.98 95.7502 285.2 93.9902 285.4 92.2302C285.54 90.9302 285.68 89.6202 285.82 88.3202C286.14 85.3802 286.46 82.4402 286.76 79.5002C286.97 77.4002 287.11 75.3002 287.32 73.2102C287.55 70.8302 287.49 68.3702 288.14 66.1102C289.39 61.7702 291.17 57.6202 294.14 54.1002C295.68 52.5102 297.23 50.9202 298.78 49.3302C301.68 47.2702 304.67 45.4002 308.27 44.8202C313.95 43.8902 319.52 43.8702 324.79 46.6502C324.97 46.7502 325.18 46.8002 325.37 46.8702C326.47 47.5302 327.57 48.1902 328.67 48.8502C330.5 50.6702 332.33 52.4902 334.16 54.3102C334.82 55.3202 335.49 56.3202 336.15 57.3202C337.08 59.7702 338.13 62.1802 338.91 64.6802C339.38 66.1902 339.61 67.8302 339.63 69.4202C339.66 72.7702 339.63 76.1302 339.35 79.4702C339.01 83.5902 338.38 87.6802 337.92 91.7902C337.7 93.8702 337.62 95.9702 337.43 98.0502C337.16 101.05 336.85 104.04 336.55 107.04C336.26 109.98 335.97 112.93 335.66 115.87C335.26 119.58 334.8 123.29 334.43 127C334.14 129.91 333.97 132.83 333.68 135.73C333.39 138.6 333.02 141.46 332.7 144.33C332.58 145.39 332.52 146.46 332.42 147.52C332.09 150.75 331.72 153.98 331.44 157.21C331.07 161.33 330.8 165.45 330.43 169.58C330.21 172.09 329.86 174.58 329.62 177.09C329.2 181.39 328.83 185.69 328.43 189.99C328.09 193.57 327.75 197.15 327.4 200.73C327.08 204 326.75 207.27 326.42 210.54C326.08 213.94 325.75 217.34 325.42 220.74C325.09 224.02 324.79 227.31 324.41 230.59C324.21 232.34 323.86 234.06 323.54 236.01C306.4 234.29 289.17 232.56 271.68 230.81C271.91 228.35 272.15 225.83 272.39 223.3ZM156.36 107.61C155.6 104.09 154.93 100.56 154.14 97.0502C153.32 93.4202 152.25 89.8302 151.6 86.1802C151.02 82.9802 150.52 79.7302 151.15 76.4602C151.56 74.3102 151.95 72.1602 152.42 70.0202C152.58 69.2602 152.93 68.5502 153.19 67.8102C153.86 66.4702 154.53 65.1402 155.19 63.8002C155.51 63.3702 155.83 62.9402 156.15 62.5102C156.83 61.6202 157.52 60.7202 158.21 59.8302C159.94 58.3202 161.66 56.8102 163.39 55.3102C165.04 54.5602 166.62 53.6302 168.33 53.1102C170.16 52.5502 172.1 52.2202 174.01 52.0902C179.92 51.6902 185.41 53.0502 190.36 56.4002C190.83 56.7202 191.3 57.0302 191.77 57.3402C193.6 59.1702 195.44 61.0002 197.27 62.8302C198.45 64.9102 199.66 66.9702 200.8 69.0702C202.75 72.7002 203.02 76.8102 204.04 80.7102C204.6 82.8502 205.18 84.9902 205.66 87.1502C206.49 90.9502 207.23 94.7702 208.04 98.5702C208.43 100.41 208.9 102.24 209.32 104.07C209.97 106.94 210.6 109.82 211.26 112.69C212.06 116.21 212.9 119.72 213.68 123.24C214.18 125.5 214.55 127.79 215.04 130.05C215.53 132.36 216.13 134.64 216.64 136.94C217.67 141.64 218.69 146.35 219.71 151.05C220.36 154.06 221.01 157.07 221.65 160.08C222.18 162.65 222.68 165.22 223.22 167.79C223.59 169.56 224 171.31 224.38 173.08C225.25 177.11 226.08 181.14 226.96 185.16C227.76 188.87 228.63 192.56 229.42 196.27C230.3 200.37 231.1 204.48 231.97 208.57C232.35 210.37 232.85 212.15 233.26 213.95C233.91 216.78 234.53 219.62 235.17 222.45C235.72 224.94 236.28 227.42 236.82 229.9C236.89 230.21 236.9 230.53 236.94 230.89C232.22 230.23 227.61 229.59 222.99 228.94C222.9 228.94 222.8 228.93 222.7 228.93C222.56 228.92 222.41 228.91 222.26 228.9C222.07 228.89 221.88 228.88 221.69 228.88C215.64 228.65 209.68 229.33 203.82 230.81C202.27 231.2 200.8 231.9 199.29 232.46C195.83 233.44 192.73 235.15 189.78 237.18C188.46 238.04 187.14 238.91 185.72 239.84C185.43 239.24 185.21 238.94 185.14 238.6C184.54 235.92 183.97 233.23 183.4 230.54C182.87 228 182.37 225.45 181.84 222.91C181.27 220.15 180.71 217.37 180.07 214.62C179.15 210.65 178.12 206.71 177.21 202.74C176.69 200.45 176.37 198.12 175.87 195.83C175.06 192.09 174.16 188.38 173.34 184.64C172.56 181.05 171.88 177.43 171.08 173.83C170.28 170.21 169.34 166.61 168.53 162.99C168.01 160.7 167.62 158.38 167.14 156.08C166.44 152.78 165.7 149.5 164.98 146.2C164.35 143.32 163.75 140.42 163.09 137.54C162.53 135.11 161.86 132.7 161.32 130.26C160.23 125.31 159.22 120.35 158.14 115.4C157.58 112.8 156.93 110.22 156.36 107.61ZM91.1704 243.8C91.7804 239.4 93.7304 235.66 96.3104 232.17C97.3504 231.05 98.4004 229.92 99.4404 228.8C100.44 227.97 101.34 226.9 102.48 226.37C104.26 225.54 106.17 224.8 108.09 224.55C110.82 224.19 113.62 224.13 116.37 224.26C119.89 224.43 123.13 225.74 126.18 227.45C127.51 228.19 128.72 229.12 129.99 229.96C131.73 231.63 133.47 233.3 135.22 234.97C135.79 235.73 136.37 236.49 136.95 237.25C137.46 237.99 137.96 238.72 138.46 239.46C140.02 241.69 141.57 243.93 143.13 246.17C145.58 249.69 148.02 253.22 150.47 256.74C150.59 256.9 150.76 257.03 150.9 257.18C151.4 257.94 151.89 258.7 152.39 259.46C154.22 262.05 156.05 264.63 157.88 267.22C158.38 267.96 158.88 268.7 159.37 269.45C161.11 271.93 162.85 274.42 164.6 276.9C165.27 277.89 165.95 278.89 166.63 279.88C168.27 282.22 169.91 284.56 171.55 286.9C172.14 287.8 172.73 288.71 173.32 289.61C174.17 291.37 175.07 293.11 175.85 294.9C176.28 295.89 176.78 296.97 176.82 298.02C176.94 301.45 177.15 304.92 176.76 308.31C176.5 310.59 175.39 312.8 174.45 314.96C173.86 316.32 172.9 317.51 172.11 318.78C170.7 320.18 169.28 321.58 167.87 322.97C167.62 323.16 167.38 323.34 167.13 323.52C165.38 324.35 163.62 325.18 161.87 326.01C158.37 327.1 154.82 327.36 151.2 326.78C150.04 326.6 148.87 326.44 147.71 326.27C147.24 326.03 146.79 325.75 146.31 325.56C142.33 324.01 138.55 322.16 135.97 318.54C132.32 313.02 128.67 307.5 125.01 301.98C120.84 295.7 116.68 289.41 112.5 283.13C110.77 280.54 108.98 277.98 107.21 275.41C106.18 274.21 105.14 273.02 104.1 271.83C104.02 271.64 104 271.41 103.87 271.28C101.77 269.24 99.6704 267.21 97.5704 265.18C97.0004 264.5 96.4304 263.82 95.8604 263.14C95.0204 261.9 94.1704 260.67 93.3304 259.43C93.2804 259.11 93.3304 258.73 93.1704 258.48C92.0904 256.76 91.6304 254.85 91.3304 252.88C90.8704 249.86 90.7404 246.86 91.1704 243.8ZM69.7804 350.28C68.5504 348.48 67.2104 346.75 65.9204 344.99C64.9704 343.45 64.0604 341.88 63.0604 340.37C59.6304 335.15 56.1604 329.95 52.7104 324.74C50.9104 322.04 49.3004 319.19 47.3004 316.66C45.0004 313.74 43.7304 310.35 42.9204 306.9C42.2504 304.06 42.4304 300.96 42.6304 298C42.9204 293.84 44.9504 290.33 47.4704 287.1C49.1304 285.36 50.8004 283.61 52.4704 281.87C54.5904 280.64 56.6004 279.11 58.8704 278.25C60.9004 277.48 63.2004 277.27 65.4104 277.15C67.7004 277.02 70.0204 277.15 72.3104 277.42C73.7104 277.59 75.1004 278.14 76.4404 278.66C77.6204 279.12 78.7304 279.76 79.8804 280.32C80.3304 280.78 80.7904 281.24 81.2504 281.7C82.5304 283.52 83.8104 285.34 85.1004 287.16C85.5904 287.9 86.0904 288.64 86.5904 289.38C88.4204 291.97 90.2504 294.56 92.0704 297.15C92.5704 297.9 93.0604 298.64 93.5604 299.39C95.3004 301.87 97.0504 304.35 98.8004 306.83C99.4704 307.83 100.14 308.82 100.82 309.82C102.39 312.09 103.96 314.35 105.54 316.62C106.88 318.51 108.21 320.39 109.55 322.28C110.47 323.61 111.38 324.94 112.3 326.27C112.94 327.13 113.58 327.99 114.22 328.85C114.65 329.44 115.08 330.02 115.51 330.6C117.16 332.5 118.82 334.41 120.48 336.31C121.35 337.62 122.23 338.92 123.1 340.23C123.57 340.98 124.05 341.74 124.52 342.49C124.71 342.74 124.9 342.98 125.08 343.23C125.56 343.98 126.04 344.74 126.51 345.49C127.43 347.36 128.41 349.2 129.25 351.11C130.78 354.62 130.55 358.37 130.47 362.06C130.42 364.18 129.95 366.24 129.15 368.3C128.13 370.94 126.88 373.38 125.23 375.66C123.82 377.06 122.41 378.46 121 379.87C120.76 380.05 120.51 380.23 120.26 380.42C118.19 381.42 116.11 382.42 114.03 383.42C111.53 383.79 109.1 384.74 106.51 384.41C105.14 384.24 103.78 384.03 102.42 383.84C101.89 383.76 101.36 383.69 100.83 383.62C98.2904 382.53 95.7404 381.43 93.2004 380.33L93.1804 380.31C93.0704 380.27 92.9604 380.23 92.8404 380.18C92.1704 379.77 91.5004 379.35 90.8304 378.94C90.6804 378.76 90.5204 378.58 90.3604 378.41C88.9404 377.08 87.5304 375.76 86.1104 374.43C85.5004 373.69 84.9004 372.95 84.2904 372.21C83.5704 371.29 82.8404 370.37 82.1204 369.45C81.9404 368.99 81.8404 368.49 81.5804 368.08C80.2104 365.96 78.8204 363.86 77.4204 361.76C74.8804 357.93 72.3604 354.09 69.7804 350.28ZM349.35 356.28C349.09 361.02 348.76 365.76 348.36 370.49C348.19 372.49 347.75 374.47 347.47 376.47C347.09 379.12 346.81 381.78 346.37 384.42C345.91 387.17 345.39 389.92 344.75 392.63C343.62 397.36 342.44 402.08 341.16 406.78C340.26 410.11 339.26 413.42 338.1 416.67C337.09 419.51 335.81 422.26 334.64 425.05C334.03 426.3 333.42 427.55 332.8 428.8C331.43 431.55 330.05 434.31 328.67 437.06C328.27 437.73 327.86 438.39 327.45 439.06C327.38 439.23 327.3 439.4 327.23 439.57C327.18 439.62 327.15 439.68 327.15 439.75C326.67 440.52 326.2 441.29 325.73 442.07C325.21 442.96 324.69 443.86 324.17 444.76C323.17 446.18 322.17 447.61 321.17 449.03C320.7 449.7 320.23 450.38 319.77 451.06C319.41 451.55 319.05 452.03 318.7 452.52C318.14 453.28 317.58 454.04 317.01 454.8C316.57 455.36 316.13 455.93 315.69 456.49C314.94 457.49 314.19 458.49 313.44 459.5C312.52 460.49 311.61 461.47 310.69 462.46C306.96 466.22 303.23 469.98 299.5 473.74C298.75 474.4 298 475.05 297.25 475.71C297.12 475.82 296.99 475.92 296.86 476.03L296.8 476.09C296.74 476.15 296.68 476.2 296.62 476.26C296.51 476.35 296.4 476.43 296.28 476.52C295.36 477.25 294.43 477.98 293.5 478.72C292.77 479.31 292.03 479.9 291.29 480.5C290.1 481.38 288.92 482.26 287.73 483.15L287.77 483.21L287.72 483.15C286.82 483.75 285.93 484.34 285.03 484.93L285.02 484.94C281.85 486.85 278.7 488.76 275.53 490.68C272.48 492.22 269.43 493.76 266.38 495.3C266.05 495.44 265.72 495.58 265.39 495.72H265.37C265.23 495.82 265.1 495.91 264.96 495.99L264.9 496.04C263.87 496.44 262.85 496.85 261.82 497.25C261.59 497.35 261.36 497.46 261.13 497.56C260.97 497.61 260.81 497.66 260.65 497.71C260.23 497.89 259.81 498.07 259.39 498.26C257.14 499.05 254.88 499.83 252.63 500.62C252.54 500.71 252.45 500.79 252.36 500.87C252.04 500.98 251.72 501.08 251.4 501.18C251.15 501.2 250.91 501.21 250.66 501.23C250.21 501.36 249.76 501.49 249.3 501.62C244.92 502.64 240.55 503.75 236.14 504.64C232.81 505.31 229.42 505.94 226.03 506.13C219.69 506.49 213.32 506.64 206.96 506.62C203.64 506.62 200.33 506.07 197.01 505.76C195.18 505.58 193.35 505.44 191.53 505.17C190.61 505.04 189.73 504.65 188.82 504.42C184.46 503.37 180.09 502.33 175.73 501.28C175.09 501.09 174.44 500.92 173.81 500.71C171.33 499.89 168.85 499.06 166.38 498.23C166.26 498.18 166.13 498.13 166.01 498.08C165.89 498.03 165.76 497.98 165.64 497.94C163.89 497.2 162.13 496.46 160.38 495.72C160.14 495.56 159.91 495.38 159.66 495.26C156.94 493.98 154.21 492.73 151.5 491.43C149.54 490.48 147.61 489.48 145.67 488.51H145.63L145.53 488.5L145.46 488.43C145.32 488.34 145.17 488.26 145.02 488.17C144.91 488.11 144.8 488.06 144.69 488C144.19 487.74 143.68 487.49 143.17 487.23C142.57 486.76 142 486.25 141.36 485.83C138.15 483.72 134.93 481.64 131.71 479.55C131.32 479.35 130.93 479.15 130.54 478.95C129.62 478.2 128.7 477.44 127.78 476.68C127.55 476.52 127.32 476.35 127.09 476.18C126.99 476.1 126.9 476.01 126.8 475.92C125.61 474.96 124.42 474 123.23 473.04C123.04 472.87 122.84 472.69 122.64 472.51C122.56 472.51 122.51 472.47 122.5 472.39C121.77 471.83 121.04 471.28 120.31 470.72C120.17 470.48 120.06 470.21 119.87 470.02C115.95 466.08 112.01 462.15 108.08 458.22C107.46 457.5 106.83 456.78 106.21 456.05C105.24 454.88 104.28 453.7 103.32 452.53C102.91 452.03 102.5 451.53 102.09 451.02C101.42 450.11 100.75 449.2 100.08 448.28C99.7504 447.86 99.4304 447.44 99.1104 447.02C98.4504 446.17 97.7904 445.32 97.1304 444.46C97.1504 444.4 97.1404 444.35 97.1104 444.29C97.0204 444.13 96.9204 443.96 96.8304 443.8C96.1704 442.88 95.5004 441.97 94.8304 441.06C94.2504 440.08 93.6604 439.09 93.0804 438.11C91.6104 435.59 90.1304 433.07 88.6604 430.55C87.4104 428.14 86.1804 425.72 84.9004 423.32C84.3604 422.29 83.7304 421.31 83.1404 420.3C83.1404 420.23 83.1204 420.16 83.1004 420.1C83.0304 420 82.9704 419.89 82.9004 419.79C81.5604 416.56 80.1604 413.36 78.9004 410.11C77.2304 405.8 75.6704 401.45 74.0904 397.1C73.8804 396.5 73.8604 395.83 73.7604 395.2C73.8604 395.11 73.9504 395.02 74.0504 394.93C74.7504 395.29 75.5504 395.53 76.1404 396.01C78.9404 398.28 81.9404 400.21 85.1604 401.8C90.5904 404.46 96.2204 406.44 102.3 406.9C104.27 407.05 106.24 407.38 108.2 407.33C111.31 407.24 114.43 406.99 117.43 406C120.33 405.04 123.32 404.29 126.1 403.07C129.45 401.61 132.5 399.61 135.36 397.22C137.81 395.18 140.13 393.06 142.2 390.65C142.85 389.81 143.5 388.98 144.15 388.14C146.84 384.72 148.72 380.85 150.29 376.82C151.74 373.1 152.67 369.24 153.09 365.31C153.42 362.22 153.22 359.07 153.17 355.94C153.13 354 152.92 352.07 152.79 350.06C167.41 350.32 179.54 344.94 189.07 333.76C189.74 332.93 190.42 332.11 191.09 331.28C192.13 329.64 193.23 328.03 194.18 326.33C194.81 325.19 195.34 324.92 196.47 325.71C197.65 326.54 198.76 327.49 199.91 328.38C200.43 328.78 200.97 329.16 201.51 329.54C202.27 330.03 203.03 330.52 203.79 331C206.61 332.57 209.42 334.16 212.25 335.7C213.09 336.16 213.99 336.5 214.84 336.91C215.81 337.38 215.9 337.86 215.05 338.55C213.85 339.52 212.5 340.3 211.37 341.34C209.51 343.05 207.78 344.9 205.99 346.69C204.99 348.21 203.99 349.74 202.99 351.27C200.78 355.17 199.75 359.46 199.1 363.84C198.68 366.69 198.44 369.57 198.31 372.45C198.04 378.35 197.9 384.25 197.71 390.15C197.73 390.4 197.75 390.66 197.77 390.91C198.93 396.08 202.01 399.56 207.2 400.69C214.42 402.24 220.63 396.76 221.22 390.78C221.37 389.34 221.4 387.89 221.48 386.44C221.74 381.91 221.72 377.33 222.32 372.84C222.9 368.56 224.37 364.46 227.53 361.24C228.44 360.32 229.36 359.41 230.27 358.49C234.39 355.54 238.8 353.08 243.46 351.09C245.93 350.18 248.4 349.28 250.87 348.35C252 347.93 253.1 347.39 254.25 347.02C257.76 345.89 261.29 344.84 264.8 343.72C267.29 342.93 269.76 342.09 272.24 341.25C272.54 341.15 272.81 340.94 273.1 340.78C273.26 340.69 273.42 340.6 273.59 340.5C274.73 339.42 275.87 338.33 277.02 337.24C280.55 331.94 279.44 325.68 275.09 321.73C274.88 321.54 274.61 321.42 274.37 321.27C273.07 319.67 271.26 319.14 269.34 318.81C266.31 318.29 263.41 319.3 260.45 319.54C256.3 319.88 252.12 320.05 247.95 320.08C245.12 320.09 242.29 319.78 239.47 319.52C238.42 319.42 237.4 319.01 236.36 318.76C234.77 318.39 233.18 318.03 231.58 317.67C230.79 317.4 230.01 317.12 229.21 316.86C227.88 316.42 226.55 315.99 225.22 315.56C224.9 315.46 224.59 315.37 224.27 315.27C222.43 314.37 220.58 313.47 218.73 312.57H218.72C218.65 312.53 218.58 312.49 218.52 312.46C218.44 312.4 218.36 312.34 218.28 312.28C218.2 312.15 218.16 311.96 218.04 311.88C215.87 310.35 213.69 308.83 211.51 307.31C210.16 305.93 208.81 304.55 207.45 303.17C206.83 302.53 206.19 301.91 205.56 301.28C203.53 298.8 202.37 295.86 201.09 292.98C199.59 289.61 198.85 286.07 198.75 282.39C198.75 282.29 198.74 282.19 198.74 282.08C198.73 281.86 198.72 281.63 198.71 281.41C198.7 281.3 198.69 281.18 198.68 281.07C198.67 280.6 198.65 280.13 198.64 279.66V279.08C198.86 275.68 198.95 272.27 199.36 268.9C199.59 267.01 200.3 265.16 200.92 263.33C201.03 263 201.74 262.71 202.19 262.69C204.88 262.63 207.59 262.69 210.28 262.62C214.78 262.51 219.28 262.26 223.78 262.19C229.35 262.1 234.91 262.12 240.48 262.1C241.97 262.1 243.46 262.17 244.95 262.15C255.41 262.03 265.86 261.85 276.31 261.77C280.92 261.73 285.53 261.85 290.14 261.92C294.57 261.99 299 261.98 303.43 262.19C306.18 262.33 308.91 262.8 311.65 263.13C314.21 263.43 316.79 263.68 319.33 264.1C322.38 264.6 325.22 265.78 327.88 267.34C329.19 268.12 330.41 269.05 331.67 269.91C333.66 271.91 335.65 273.9 337.64 275.9C338.86 277.67 340.36 279.32 341.24 281.25C342.6 284.21 343.54 287.35 344.63 290.42C344.96 291.34 345.26 292.28 345.47 293.23C345.98 295.59 346.51 297.95 346.89 300.34C347.3 302.89 347.56 305.46 347.88 308.02C348.29 311.43 348.7 314.83 349.09 318.24C349.22 319.38 349.33 320.53 349.36 321.68C349.46 326.03 349.53 330.38 349.62 334.72C349.69 337.58 349.88 340.43 349.84 343.28C349.76 347.62 349.59 351.95 349.35 356.28Z" fill="#6cafe5"/>
</svg>
